# xmcd CD database file generated by OrangeCD 6.1
#
# Track frame offsets:
#	150
#	15931
#	35340
#	52751
#	68467
#	87104
#	107626
#	124008
#	140856
#	163954
#
# Disc length: 2557 seconds
#
# Revision: 0
# Processed by: cddbd v1.5.2PL0 Copyright (c) Steve Scherf et al.
# Submitted via: OrangeCD 6.1
#
DISCID=7709fb0a
DTITLE=Pino Daniele - Il mio nome è Pino Daniele e vivo qui
DYEAR=2007
DGENRE=
TTITLE0=Back Home
TTITLE1=Rhum and coca
TTITLE2=Il giorno e la notte
TTITLE3=Salvami
TTITLE4=Vento di passione
TTITLE5=Mardi Gras
TTITLE6=Blues del peccatore
TTITLE7=L'africano
TTITLE8=Ischia sole nascente
TTITLE9=Passo napoletano
EXTD=
EXTT0=
EXTT1=
EXTT2=
EXTT3=
EXTT4=
EXTT5=
EXTT6=
EXTT7=
EXTT8=
EXTT9=
PLAYORDER=
